<svg width="160" height="61" viewBox="0 0 160 61" fill="none" xmlns="http://www.w3.org/2000/svg">
<g clip-path="url(#clip0_21_29)">
<path d="M53.234 21.1648C53.2762 21.2492 53.2973 21.5446 53.2973 22.0509C53.3184 22.5572 53.3184 23.169 53.2973 23.8863C53.2973 24.6036 53.2762 25.3736 53.234 26.1964C53.1918 26.9981 53.139 27.7576 53.0758 28.4749C53.0336 28.8757 52.9597 29.477 52.8542 30.2786C52.7699 31.0803 52.6644 31.9664 52.5378 32.9368C52.4112 33.9073 52.2741 34.9094 52.1264 35.9431C51.9998 36.9558 51.8732 37.8946 51.7467 38.7595C51.6201 39.6034 51.504 40.3102 51.3986 40.8798C51.3142 41.4494 51.2509 41.7553 51.2087 41.7975C51.1243 41.8608 50.9872 42.019 50.7973 42.2722C50.6074 42.5042 50.3965 42.7468 50.1644 43C49.9534 43.2321 49.753 43.4219 49.5631 43.5696C49.3733 43.7173 49.2467 43.7384 49.1834 43.6329C49.1412 43.4219 49.1201 42.7679 49.1201 41.6709C49.1201 41.2068 49.1201 40.6266 49.1201 39.9304C49.1412 39.2131 49.1623 38.3482 49.1834 37.3355C49.2256 36.3229 49.2783 35.1414 49.3416 33.7912C49.4049 32.4411 49.4788 30.8799 49.5631 29.1078C49.1412 30.5423 48.7615 31.8082 48.4239 32.9052C48.1075 34.0022 47.8227 34.9621 47.5695 35.7849C47.3374 36.5866 47.137 37.2722 46.9682 37.8418C46.7995 38.3904 46.6518 38.8439 46.5252 39.2026C46.2509 40.0464 46.0716 40.5422 45.9872 40.6899C45.9028 40.711 45.7657 40.6477 45.5758 40.5C45.4071 40.3524 45.2067 40.1414 44.9746 39.8671C44.7636 39.5718 44.5421 39.2237 44.31 38.8228C44.0991 38.422 43.9197 37.979 43.7721 37.4937C43.6244 37.0507 43.4345 36.46 43.2025 35.7216C42.9915 35.0887 42.7172 34.2659 42.3797 33.2533C42.0421 32.2195 41.6307 30.9326 41.1455 29.3926C41.2721 31.1225 41.3776 32.6415 41.462 33.9495C41.5464 35.2575 41.6096 36.3967 41.6518 37.3672C41.7151 38.3376 41.7573 39.1604 41.7784 39.8355C41.8206 40.4895 41.8417 41.038 41.8417 41.481C41.8628 42.4937 41.8312 43.0738 41.7468 43.2215C41.5358 43.2215 41.3037 43.1266 41.0506 42.9367C40.8185 42.7257 40.5865 42.4831 40.3544 42.2089C40.1434 41.9135 39.9536 41.6287 39.7848 41.3545C39.6371 41.0802 39.5527 40.8798 39.5316 40.7532C39.5105 40.6688 39.4472 40.2785 39.3417 39.5823C39.2363 38.8861 39.1097 38.0001 38.962 36.9241C38.8354 35.8271 38.6877 34.6035 38.519 33.2533C38.3713 31.882 38.2236 30.4896 38.0759 29.0761C37.9494 27.6626 37.8439 26.2913 37.7595 24.9622C37.6751 23.612 37.6329 22.4095 37.6329 21.3547C37.6329 21.1859 37.8439 20.9644 38.2658 20.6901C38.6877 20.3948 39.1624 20.1205 39.6898 19.8674C40.2384 19.5931 40.7447 19.361 41.2088 19.1712C41.6729 18.9602 41.9577 18.8547 42.0632 18.8547C42.1476 18.8547 42.232 19.0973 42.3164 19.5826C42.4219 20.0678 42.5379 20.6796 42.6645 21.418C42.7911 22.1564 42.9282 22.9791 43.0759 23.8863C43.2236 24.7935 43.3923 25.6584 43.5822 26.4812C43.7299 27.3251 43.9092 28.2006 44.1202 29.1078C44.2889 29.8883 44.4788 30.7533 44.6898 31.7027C44.9218 32.6309 45.175 33.5381 45.4493 34.4242C45.7446 33.1372 46.0083 31.9769 46.2404 30.9432C46.4936 29.8883 46.7151 28.9917 46.9049 28.2533C47.137 27.3884 47.3374 26.6183 47.5062 25.9432C47.8859 24.2977 48.2551 23.0002 48.6138 22.0509C48.9935 21.1015 49.2361 20.5425 49.3416 20.3737C49.4049 20.2893 49.6264 20.2682 50.0062 20.3104C50.407 20.3526 50.8395 20.4264 51.3036 20.5319C51.7678 20.6163 52.1897 20.7218 52.5694 20.8484C52.9703 20.9749 53.1918 21.0804 53.234 21.1648ZM61.9048 26.0698C61.947 26.1331 62.0102 26.4285 62.0946 26.9559C62.179 27.4833 62.2634 28.1373 62.3478 28.9179C62.4533 29.6985 62.5482 30.5423 62.6326 31.4495C62.7381 32.3567 62.833 33.2216 62.9174 34.0444C63.0229 34.8672 63.1073 35.6056 63.1706 36.2596C63.2339 36.9136 63.2866 37.3566 63.3288 37.5887C63.3921 37.9684 63.4659 38.3904 63.5503 38.8545C63.6347 39.2975 63.7085 39.73 63.7718 40.1519C63.8351 40.5528 63.8773 40.9009 63.8984 41.1962C63.9406 41.4916 63.9301 41.6709 63.8668 41.7342C63.8246 41.7975 63.6558 41.8186 63.3604 41.7975C63.0651 41.7553 62.7381 41.692 62.3794 41.6076C62.0419 41.5021 61.7149 41.3861 61.3984 41.2595C61.1031 41.1118 60.9132 40.9747 60.8288 40.8481C60.7444 40.7426 60.6601 40.5844 60.5757 40.3734C60.5124 40.1625 60.428 39.7933 60.3225 39.2659C60.0904 39.5823 59.8373 39.9199 59.563 40.2785C59.3099 40.6161 59.0567 40.9325 58.8035 41.2279C58.5504 41.5021 58.3183 41.7236 58.1073 41.8924C57.8964 42.0612 57.7381 42.1456 57.6327 42.1456C57.4639 42.1456 57.2107 41.9768 56.8732 41.6393C56.5356 41.2806 56.1981 40.8798 55.8605 40.4367C55.523 39.9937 55.2171 39.5718 54.9428 39.1709C54.6686 38.7701 54.5209 38.5064 54.4998 38.3798C54.4576 38.2532 54.4365 37.9051 54.4365 37.3355C54.4576 36.7659 54.4787 36.133 54.4998 35.4368C54.542 34.7195 54.5842 34.0128 54.6264 33.3166C54.6686 32.5993 54.7108 32.0297 54.753 31.6077C54.7951 31.1858 54.8373 30.7217 54.8795 30.2153C54.9428 29.6879 55.0061 29.2027 55.0694 28.7597C55.1327 28.2955 55.1854 27.8947 55.2276 27.5571C55.2909 27.2196 55.3437 27.0192 55.3859 26.9559C55.428 26.8926 55.5441 26.861 55.734 26.861C55.9449 26.8399 56.1559 26.8504 56.3669 26.8926C56.5989 26.9137 56.8099 26.9664 56.9998 27.0508C57.1896 27.1141 57.3162 27.1985 57.3795 27.304C57.4217 27.3884 57.4428 27.6626 57.4428 28.1268C57.4639 28.5698 57.4744 29.1183 57.4744 29.7723C57.4744 30.4052 57.4744 31.1014 57.4744 31.8609C57.4744 32.5993 57.4639 33.2955 57.4428 33.9495C57.4428 34.5824 57.4322 35.1309 57.4111 35.595C57.4111 36.0381 57.4111 36.3018 57.4111 36.3862C57.4111 36.5549 57.5061 36.8819 57.696 37.3672C57.9069 37.8524 58.1179 38.3165 58.3289 38.7595L59.9744 36.7975C59.9533 36.4178 59.9322 35.9326 59.9111 35.3419C59.9111 34.7512 59.9006 34.1288 59.8795 33.4748C59.8584 32.8208 59.8373 32.1562 59.8162 31.4812C59.7951 30.8061 59.7845 30.1942 59.7845 29.6457C59.7845 29.0972 59.7845 28.6436 59.7845 28.285C59.7845 27.9263 59.7951 27.7154 59.8162 27.6521C59.8795 27.5255 60.0061 27.3567 60.1959 27.1458C60.3858 26.9348 60.5968 26.7344 60.8288 26.5445C61.0609 26.3546 61.2719 26.207 61.4617 26.1015C61.6727 25.996 61.8204 25.9854 61.9048 26.0698ZM74.1515 29.7407C74.1515 30.0782 74.1093 30.5634 74.0249 31.1963C73.9616 31.8292 73.8666 32.5254 73.7401 33.2849C73.6135 34.0233 73.4764 34.7933 73.3287 35.595C73.2021 36.3756 73.065 37.0929 72.9173 37.7469C72.7907 38.4009 72.6747 38.9494 72.5692 39.3924C72.4848 39.8355 72.4321 40.0781 72.411 40.1203C72.3688 40.1836 72.2527 40.2258 72.0629 40.2469C71.8941 40.2469 71.6937 40.2258 71.4616 40.1836C71.2506 40.1414 71.0502 40.0781 70.8604 39.9937C70.6916 39.9093 70.5861 39.8038 70.5439 39.6773C70.5228 39.5929 70.5123 39.2975 70.5123 38.7912C70.5334 38.2849 70.5545 37.6836 70.5755 36.9874C70.6177 36.2701 70.6599 35.5106 70.7021 34.709C70.7443 33.8862 70.7865 33.1267 70.8287 32.4305C70.892 31.7132 70.9342 31.1014 70.9553 30.5951C70.9975 30.0888 71.0186 29.7829 71.0186 29.6774C71.0186 29.2976 70.9764 28.939 70.892 28.6014C70.8287 28.2428 70.7443 27.9369 70.6388 27.6837C70.5334 27.4306 70.4068 27.2407 70.2591 27.1141C70.1325 26.9664 70.0165 26.9137 69.911 26.9559C69.6367 26.9981 69.4047 27.0719 69.2148 27.1774C69.0249 27.2618 68.8667 27.3567 68.7401 27.4622C68.5924 27.5888 68.4764 27.7365 68.392 27.9052C68.3709 27.9474 68.3287 28.074 68.2654 28.285C68.2233 28.496 68.2022 28.7386 68.2022 29.0128C68.2022 29.0972 68.2022 29.4031 68.2022 29.9305C68.2022 30.4369 68.1916 31.0487 68.1705 31.766C68.1705 32.4832 68.16 33.2638 68.1389 34.1077C68.1389 34.9305 68.1283 35.7005 68.1072 36.4178C68.1072 37.114 68.0967 37.7153 68.0756 38.2216C68.0545 38.7279 68.0334 39.0127 68.0123 39.076C67.9701 39.2026 67.8646 39.3819 67.6958 39.614C67.5271 39.8249 67.3372 40.0254 67.1262 40.2152C66.9153 40.4051 66.7148 40.5528 66.525 40.6583C66.3351 40.7426 66.2085 40.7215 66.1452 40.595C66.0819 40.5317 66.0186 40.2258 65.9553 39.6773C65.8921 39.1076 65.8182 38.422 65.7338 37.6203C65.6705 36.7975 65.5967 35.9115 65.5123 34.9621C65.4279 33.9917 65.3541 33.0634 65.2908 32.1773C65.2275 31.2913 65.1748 30.4896 65.1326 29.7723C65.0904 29.055 65.0587 28.5381 65.0376 28.2217C65.0165 27.7787 64.9954 27.2829 64.9743 26.7344C64.9533 26.1648 64.9322 25.6373 64.9111 25.1521C64.9111 24.6458 64.9111 24.2133 64.9111 23.8547C64.9322 23.4749 64.9743 23.2429 65.0376 23.1585C65.0798 23.0741 65.217 23.053 65.449 23.0952C65.7022 23.1374 65.9659 23.2218 66.2402 23.3483C66.5355 23.4538 66.8098 23.591 67.0629 23.7597C67.3161 23.9074 67.4849 24.0551 67.5693 24.2028C67.6114 24.3293 67.6642 24.477 67.7275 24.6458C67.7908 24.7935 67.8435 25.0466 67.8857 25.4053C68.2444 25.1943 68.6346 25.0044 69.0566 24.8357C69.4785 24.6458 69.8899 24.5087 70.2907 24.4243C70.7127 24.3188 71.1135 24.2871 71.4933 24.3293C71.873 24.3504 72.2105 24.4559 72.5059 24.6458C72.6958 24.7935 72.8856 25.0466 73.0755 25.4053C73.2865 25.7639 73.4658 26.1859 73.6135 26.6711C73.7823 27.1563 73.9088 27.6732 73.9932 28.2217C74.0987 28.7491 74.1515 29.2554 74.1515 29.7407ZM84.8792 22.0509C84.9425 22.5572 84.9636 23.5699 84.9425 25.0888C84.9425 25.7428 84.9214 26.534 84.8792 27.4622C84.8581 28.3905 84.8159 29.5086 84.7526 30.8166C84.6893 32.1035 84.6049 33.6014 84.4994 35.3102C84.415 36.998 84.299 38.9178 84.1513 41.0696C84.1091 41.2806 84.0142 41.5127 83.8665 41.7658C83.7399 42.019 83.5923 42.2511 83.4235 42.462C83.2547 42.673 83.0754 42.8523 82.8855 43C82.6957 43.1266 82.5269 43.1688 82.3792 43.1266C82.337 43.1055 82.2843 42.9367 82.221 42.6203C82.1788 42.3038 82.1366 41.8608 82.0944 41.2912C81.145 41.7131 80.2484 41.9979 79.4046 42.1456C78.5607 42.2933 77.875 42.1983 77.3476 41.8608C77.1366 41.7342 76.9257 41.5127 76.7147 41.1962C76.5248 40.8587 76.3455 40.4684 76.1767 40.0254C76.008 39.5823 75.8708 39.1182 75.7654 38.633C75.6599 38.1266 75.6071 37.652 75.6071 37.2089C75.6071 36.8925 75.6282 36.4705 75.6704 35.9431C75.7126 35.4157 75.7654 34.8461 75.8286 34.2343C75.8919 33.6014 75.9658 32.9685 76.0502 32.3356C76.1346 31.6816 76.2189 31.0803 76.3033 30.5318C76.3877 29.9833 76.4616 29.5191 76.5248 29.1394C76.5881 28.7597 76.6409 28.5276 76.6831 28.4432C76.7253 28.1901 76.7991 27.9791 76.9046 27.8103C77.0312 27.6415 77.1366 27.515 77.221 27.4306C77.432 27.2618 77.7379 27.1352 78.1387 27.0508C78.5607 26.9664 78.9932 26.9137 79.4362 26.8926C79.9003 26.8715 80.3328 26.882 80.7337 26.9242C81.1345 26.9453 81.4298 26.9875 81.6197 27.0508H81.683C81.6408 24.4348 81.6408 22.4201 81.683 21.0066C81.7252 19.5931 81.8096 18.8336 81.9362 18.7281C82.0206 18.6648 82.2104 18.7176 82.5058 18.8864C82.8011 19.0551 83.107 19.2978 83.4235 19.6142C83.761 19.9307 84.0669 20.3104 84.3412 20.7534C84.6366 21.1754 84.8159 21.6079 84.8792 22.0509ZM80.0691 39.7722C80.3645 39.7089 80.6282 39.6351 80.8602 39.5507C81.1134 39.4452 81.3244 39.3503 81.4931 39.2659C81.683 39.1815 81.8412 39.076 81.9678 38.9494C81.9467 38.4009 81.9256 37.7891 81.9045 37.114C81.8834 36.4178 81.8623 35.7005 81.8412 34.9621C81.8201 34.2237 81.799 33.4748 81.7779 32.7153C81.7568 31.9347 81.7358 31.1858 81.7147 30.4685C81.7147 30.2364 81.6725 30.036 81.5881 29.8672C81.5248 29.6985 81.4404 29.5613 81.3349 29.4559C81.2716 29.4137 81.145 29.3609 80.9552 29.2976C80.7653 29.2132 80.5438 29.15 80.2906 29.1078C80.0586 29.0445 79.8265 29.0128 79.5944 29.0128C79.3835 29.0128 79.2358 29.055 79.1514 29.1394C79.1092 29.1605 79.067 29.3715 79.0248 29.7723C79.0037 30.1521 78.9721 30.6373 78.9299 31.228C78.9088 31.7976 78.8771 32.42 78.8349 33.0951C78.8138 33.7702 78.7927 34.4031 78.7717 34.9938C78.7506 35.5845 78.7295 36.0908 78.7084 36.5127C78.6873 36.9347 78.6767 37.1667 78.6767 37.2089C78.6767 37.5676 78.7189 37.9051 78.8033 38.2216C78.9088 38.538 79.0354 38.8228 79.183 39.076C79.3307 39.3081 79.4889 39.4979 79.6577 39.6456C79.8265 39.7722 79.9636 39.8144 80.0691 39.7722ZM93.4867 25.6901C93.6343 25.8167 93.7715 26.0593 93.8981 26.4179C94.0457 26.7766 94.1723 27.2091 94.2778 27.7154C94.3833 28.2217 94.4782 28.7702 94.5626 29.3609C94.647 29.9516 94.7208 30.5318 94.7841 31.1014C94.8474 31.671 94.8896 32.209 94.9107 32.7153C94.9529 33.2005 94.9845 33.6014 95.0056 33.9178C95.0267 34.2976 95.0373 34.6984 95.0373 35.1203C95.0584 35.5212 95.0584 35.9115 95.0373 36.2912C95.0373 36.6499 95.0162 36.9769 94.974 37.2722C94.9529 37.5676 94.9107 37.7891 94.8474 37.9368C94.7208 38.2532 94.4993 38.4747 94.1829 38.6013C93.8875 38.7068 93.55 38.7806 93.1702 38.8228C92.9803 38.8439 92.6533 38.8545 92.1892 38.8545C91.7462 38.8334 91.261 38.8123 90.7335 38.7912C90.2272 38.749 89.742 38.7068 89.2779 38.6646C88.8137 38.6224 88.4656 38.5802 88.2336 38.538C87.7694 38.4325 87.4319 38.2954 87.2209 38.1266C87.031 37.9579 86.8412 37.7153 86.6513 37.3988C86.588 37.2722 86.5353 36.9558 86.4931 36.4494C86.4509 35.922 86.4192 35.2997 86.3981 34.5824C86.3981 33.844 86.4087 33.0529 86.4298 32.209C86.4509 31.3651 86.4825 30.5634 86.5247 29.804C86.588 29.0445 86.6513 28.3799 86.7146 27.8103C86.799 27.2407 86.9045 26.861 87.031 26.6711C87.242 26.3757 87.6007 26.1015 88.107 25.8483C88.6344 25.5951 89.1091 25.3947 89.531 25.247C89.742 25.1838 90.0162 25.1416 90.3538 25.1205C90.7124 25.0783 91.0816 25.0783 91.4614 25.1205C91.8622 25.1416 92.242 25.2049 92.6006 25.3103C92.9592 25.3947 93.2546 25.5213 93.4867 25.6901ZM91.7145 35.5001C91.7567 35.4157 91.7989 35.1625 91.8411 34.7406C91.9044 34.2976 91.9466 33.7702 91.9677 33.1583C92.0099 32.5465 92.031 31.8925 92.031 31.1963C92.0521 30.5001 92.0626 29.8567 92.0626 29.266C92.0626 28.6753 92.0415 28.1795 91.9993 27.7787C91.9571 27.3567 91.9044 27.1141 91.8411 27.0508C91.7356 26.9664 91.5774 26.9348 91.3664 26.9559C91.1766 26.9559 90.9761 26.9875 90.7652 27.0508C90.5542 27.093 90.3643 27.1563 90.1956 27.2407C90.0268 27.304 89.9108 27.3673 89.8475 27.4306C89.5732 27.6626 89.4255 28.0424 89.4044 28.5698C89.4044 28.7175 89.3833 29.1394 89.3411 29.8356C89.32 30.5107 89.3095 31.2491 89.3095 32.0508C89.3095 32.8313 89.32 33.5592 89.3411 34.2343C89.3833 34.9094 89.4572 35.3208 89.5627 35.4684C89.6681 35.6161 89.8158 35.7322 90.0057 35.8165C90.2167 35.8798 90.4276 35.9115 90.6386 35.9115C90.8707 35.9115 91.0816 35.8798 91.2715 35.8165C91.4825 35.7322 91.6301 35.6267 91.7145 35.5001Z" fill="white"/>
<path d="M99.879 39.9621C99.4782 38.5908 99.0457 36.9769 98.5815 35.1203C98.1807 33.5381 97.7166 31.6077 97.1892 29.3293C96.6617 27.0508 96.1027 24.4348 95.512 21.4813C95.512 21.2703 95.628 21.0277 95.8601 20.7534C96.0921 20.4581 96.3664 20.1838 96.6828 19.9307C97.0204 19.6775 97.3685 19.456 97.7271 19.2661C98.0858 19.0762 98.3917 18.9813 98.6448 18.9813C98.7925 19.1501 98.9929 19.8674 99.2461 21.1332C99.3516 21.6817 99.4782 22.3673 99.6258 23.1901C99.7946 24.0129 99.9739 25.0361 100.164 26.2597C100.354 27.4622 100.565 28.8757 100.797 30.5001C101.029 32.1246 101.292 34.0128 101.588 36.1646C101.799 34.709 102.01 33.3377 102.221 32.0508C102.432 30.7428 102.622 29.5824 102.79 28.5698C103.001 27.4095 103.191 26.3335 103.36 25.342C103.444 24.7302 103.539 24.0867 103.645 23.4116C103.771 22.7154 103.898 22.0825 104.025 21.5129C104.151 20.9433 104.278 20.4686 104.404 20.0889C104.552 19.7091 104.71 19.5193 104.879 19.5193C105.027 19.4982 105.269 19.5193 105.607 19.5826C105.965 19.6458 106.314 19.7408 106.651 19.8674C106.989 19.9729 107.284 20.0994 107.537 20.2471C107.811 20.3948 107.949 20.5425 107.949 20.6901C107.949 20.7745 107.864 21.1754 107.695 21.8927C107.548 22.6099 107.326 23.5277 107.031 24.6458C106.757 25.7428 106.44 26.9875 106.081 28.3799C105.744 29.7723 105.375 31.1963 104.974 32.652C104.594 34.0866 104.214 35.4895 103.835 36.8608C103.455 38.2321 103.107 39.4557 102.79 40.5317C102.474 41.5865 102.2 42.4409 101.968 43.0949C101.757 43.7489 101.609 44.0759 101.525 44.0759C101.44 44.0759 101.219 43.7067 100.86 42.9684C100.501 42.2089 100.174 41.2068 99.879 39.9621ZM111.429 29.3926C111.472 29.4981 111.493 29.8356 111.493 30.4052C111.514 30.9537 111.514 31.6288 111.493 32.4305C111.493 33.2111 111.472 34.055 111.429 34.9621C111.387 35.8482 111.335 36.6921 111.271 37.4937C111.229 38.2743 111.176 38.9494 111.113 39.519C111.05 40.0675 110.986 40.3945 110.923 40.5C110.733 40.7954 110.448 40.9853 110.069 41.0696C109.689 41.1329 109.415 41.1435 109.246 41.1013C109.162 41.1013 109.067 40.8587 108.961 40.3734C108.877 39.8882 108.792 39.2764 108.708 38.538C108.624 37.7996 108.55 36.998 108.486 36.133C108.423 35.268 108.37 34.4453 108.328 33.6647C108.286 32.863 108.265 32.1668 108.265 31.5761C108.265 30.9854 108.286 30.6056 108.328 30.4369C108.392 30.1626 108.571 29.92 108.866 29.709C109.183 29.4981 109.51 29.3398 109.847 29.2343C110.206 29.1289 110.533 29.0867 110.828 29.1078C111.145 29.1078 111.345 29.2027 111.429 29.3926ZM111.588 24.266C111.672 24.4348 111.704 24.6669 111.683 24.9622C111.683 25.2576 111.651 25.5635 111.588 25.88C111.524 26.1964 111.44 26.5023 111.335 26.7977C111.229 27.093 111.124 27.3251 111.018 27.4939C110.807 27.7892 110.491 27.9791 110.069 28.0635C109.668 28.1268 109.373 28.1373 109.183 28.0951C109.035 28.074 108.887 27.9791 108.74 27.8103C108.592 27.6204 108.465 27.3989 108.36 27.1458C108.254 26.8715 108.181 26.5761 108.138 26.2597C108.096 25.9432 108.107 25.6479 108.17 25.3736C108.233 25.0994 108.434 24.8568 108.771 24.6458C109.109 24.4137 109.467 24.245 109.847 24.1395C110.227 24.0129 110.586 23.9601 110.923 23.9812C111.261 23.9812 111.482 24.0762 111.588 24.266ZM122.157 26.3546C122.284 26.5023 122.4 26.6605 122.505 26.8293C122.611 26.977 122.706 27.188 122.79 27.4622C122.874 27.7154 122.938 28.0529 122.98 28.4749C123.043 28.8968 123.075 29.4453 123.075 30.1204C123.075 31.1963 123.043 32.2828 122.98 33.3799C122.938 34.4558 122.896 35.4052 122.853 36.2279C122.832 36.9663 122.811 37.652 122.79 38.2849C122.769 38.9178 122.748 39.4768 122.727 39.9621C122.706 40.4262 122.674 40.7954 122.632 41.0696C122.611 41.3439 122.59 41.4916 122.569 41.5127C122.484 41.576 122.347 41.5549 122.157 41.4494C121.988 41.3228 121.799 41.1646 121.588 40.9747C121.398 40.7848 121.218 40.5844 121.05 40.3734C120.881 40.1625 120.775 39.9937 120.733 39.8671C120.733 39.7616 120.702 39.4557 120.638 38.9494C120.132 39.2448 119.573 39.4557 118.961 39.5823C118.349 39.6878 117.737 39.73 117.126 39.7089C116.535 39.6667 115.986 39.5507 115.48 39.3608C114.974 39.1709 114.594 38.9178 114.341 38.6013C114.235 38.4747 114.14 38.2849 114.056 38.0317C113.993 37.7785 113.929 37.4937 113.866 37.1773C113.824 36.8397 113.782 36.4916 113.74 36.133C113.697 35.7533 113.666 35.4052 113.645 35.0887C113.602 34.2659 113.708 33.5592 113.961 32.9685C114.214 32.3567 114.678 31.9031 115.353 31.6077C115.649 31.4812 116.039 31.4179 116.524 31.4179C117.031 31.3968 117.526 31.4179 118.012 31.4812C118.518 31.5233 118.972 31.5866 119.372 31.671C119.773 31.7343 120.026 31.7871 120.132 31.8292C120.048 30.7533 119.984 29.8251 119.942 29.0445C119.9 28.2428 119.815 27.7259 119.689 27.4939C119.583 27.3462 119.457 27.1985 119.309 27.0508C119.183 26.9453 119.014 26.8293 118.803 26.7027C118.592 26.5761 118.339 26.4812 118.043 26.4179C117.811 26.3757 117.6 26.4707 117.41 26.7027C117.242 26.9137 117.083 27.2934 116.936 27.842C116.809 28.3694 116.735 29.1816 116.714 30.2786C115.976 30.2997 115.406 30.2997 115.005 30.2786C114.626 30.2364 114.341 30.1942 114.151 30.1521C113.919 30.1099 113.782 30.0571 113.74 29.9938C113.697 29.9094 113.718 29.6035 113.803 29.0761C113.887 28.5276 114.003 27.9369 114.151 27.304C114.32 26.6711 114.51 26.0698 114.721 25.5002C114.953 24.9306 115.195 24.572 115.448 24.4243C115.955 24.1289 116.556 24.0234 117.252 24.1078C117.969 24.1922 118.666 24.3715 119.341 24.6458C120.016 24.92 120.617 25.226 121.145 25.5635C121.672 25.901 122.01 26.1648 122.157 26.3546ZM120.195 35.595C120.195 35.4895 120.206 35.3524 120.227 35.1836C120.248 34.9938 120.258 34.8039 120.258 34.614C120.258 34.4242 120.248 34.2448 120.227 34.0761C120.227 33.9073 120.206 33.7807 120.164 33.6963C120.1 33.5697 119.91 33.4642 119.594 33.3799C119.299 33.2955 118.961 33.2427 118.581 33.2216C118.202 33.1794 117.843 33.1689 117.505 33.19C117.168 33.19 116.936 33.2322 116.809 33.3166C116.64 33.4221 116.514 33.5697 116.429 33.7596C116.366 33.9495 116.324 34.2448 116.303 34.6457C116.303 34.8355 116.313 35.036 116.334 35.2469C116.356 35.4579 116.377 35.6689 116.398 35.8798C116.44 36.0697 116.482 36.2385 116.524 36.3862C116.588 36.5338 116.651 36.6288 116.714 36.671C116.862 36.7764 117.115 36.8714 117.474 36.9558C117.853 37.0191 118.233 37.0402 118.613 37.0191C118.993 36.9769 119.341 36.8503 119.657 36.6393C119.974 36.4283 120.153 36.0803 120.195 35.595ZM120.543 44.962C120.48 44.8354 120.427 44.6245 120.385 44.3291C120.322 44.0548 120.29 43.77 120.29 43.4747C120.269 43.2004 120.28 42.9578 120.322 42.7468C120.343 42.5148 120.406 42.3987 120.512 42.3987C120.617 42.3987 120.87 42.5042 121.271 42.7152C121.672 42.9051 122.104 43.1055 122.569 43.3165C123.033 43.5485 123.465 43.7278 123.866 43.8544C124.246 44.0021 124.478 44.0021 124.562 43.8544C124.668 43.6856 124.763 43.2637 124.847 42.5886C124.931 41.8924 125.005 41.0802 125.069 40.1519C125.132 39.2026 125.185 38.1899 125.227 37.114C125.29 36.017 125.332 34.9938 125.353 34.0444C125.396 33.074 125.427 32.2301 125.448 31.5128C125.469 30.7955 125.491 30.3314 125.512 30.1204C125.533 29.9305 125.638 29.709 125.828 29.4559C126.018 29.1816 126.239 28.9495 126.493 28.7597C126.746 28.5487 126.999 28.3905 127.252 28.285C127.505 28.1795 127.695 28.169 127.822 28.2533C127.906 28.3166 127.969 28.7386 128.012 29.5191C128.075 30.2786 128.107 31.228 128.107 32.3672C128.128 33.4853 128.128 34.709 128.107 36.0381C128.107 37.3672 128.085 38.6224 128.043 39.8038C128.022 40.9853 127.98 42.019 127.917 42.9051C127.874 43.7911 127.832 44.3502 127.79 44.5823C127.748 44.7088 127.611 44.9093 127.379 45.1835C127.147 45.4789 126.872 45.7742 126.556 46.0696C126.261 46.3649 125.955 46.6286 125.638 46.8607C125.343 47.0928 125.1 47.2405 124.91 47.3037C124.488 47.4303 124.045 47.4092 123.581 47.2405C123.117 47.0717 122.674 46.8396 122.252 46.5443C121.83 46.27 121.461 45.9746 121.145 45.6582C120.828 45.3417 120.628 45.1097 120.543 44.962ZM128.486 22.842C128.571 23.0108 128.602 23.2429 128.581 23.5382C128.581 23.8336 128.55 24.15 128.486 24.4876C128.423 24.804 128.339 25.1099 128.233 25.4053C128.128 25.7006 128.022 25.9327 127.917 26.1015C127.706 26.4179 127.389 26.6183 126.967 26.7027C126.545 26.766 126.229 26.7766 126.018 26.7344C125.87 26.7133 125.723 26.6078 125.575 26.4179C125.427 26.228 125.301 26.0065 125.195 25.7534C125.09 25.4791 125.016 25.1838 124.974 24.8673C124.931 24.5509 124.942 24.245 125.005 23.9496C125.069 23.6753 125.269 23.4222 125.607 23.1901C125.944 22.958 126.313 22.7893 126.714 22.6838C127.115 22.5572 127.484 22.5045 127.822 22.5256C128.159 22.5256 128.381 22.631 128.486 22.842ZM132.853 33.8545C133.191 33.728 133.571 33.5908 133.993 33.4432C134.436 33.2744 134.857 33.1267 135.258 33.0001C135.659 32.8524 136.018 32.7259 136.334 32.6204C136.651 32.5149 136.883 32.4305 137.03 32.3672C137.009 32.1352 136.978 31.8714 136.936 31.5761C136.914 31.2596 136.883 30.9643 136.841 30.69C136.798 30.3947 136.746 30.1415 136.682 29.9305C136.619 29.7196 136.556 29.593 136.492 29.5508C136.324 29.4875 136.039 29.4348 135.638 29.3926C135.258 29.3293 134.857 29.3398 134.436 29.4242C134.035 29.5086 133.666 29.6668 133.328 29.8989C132.99 30.131 132.801 30.5001 132.758 31.0065C132.716 31.344 132.706 31.766 132.727 32.2723C132.748 32.7786 132.79 33.306 132.853 33.8545ZM139.72 34.3609C139.699 34.4031 139.446 34.4874 138.961 34.614C138.476 34.7406 137.895 34.8777 137.22 35.0254C136.545 35.152 135.828 35.2891 135.068 35.4368C134.309 35.5634 133.655 35.6689 133.106 35.7533C133.212 36.5971 133.339 37.3566 133.486 38.0317C133.634 38.6857 133.76 39.0971 133.866 39.2659C133.971 39.4135 134.109 39.5507 134.277 39.6773C134.425 39.7827 134.604 39.8882 134.815 39.9937C135.047 40.0781 135.322 40.1414 135.638 40.1836C135.87 40.2469 136.092 40.1625 136.303 39.9304C136.471 39.7194 136.619 39.3503 136.746 38.8228C136.893 38.2954 136.967 37.4621 136.967 36.3229C137.621 36.2174 138.127 36.1541 138.486 36.133C138.866 36.1119 139.14 36.1119 139.309 36.133C139.52 36.1541 139.646 36.1857 139.689 36.2279C139.71 36.2912 139.71 36.4494 139.689 36.7026C139.668 36.9558 139.615 37.2722 139.53 37.652C139.467 38.0106 139.383 38.4114 139.277 38.8545C139.193 39.2764 139.087 39.6878 138.961 40.0886C138.834 40.4684 138.697 40.8165 138.549 41.1329C138.402 41.4283 138.244 41.6393 138.075 41.7658C137.568 42.1456 136.936 42.3355 136.176 42.3355C135.417 42.3144 134.668 42.2089 133.929 42.019C133.191 41.808 132.526 41.5654 131.936 41.2912C131.345 40.9958 130.976 40.7532 130.828 40.5633C130.723 40.4367 130.628 40.1203 130.543 39.614C130.459 39.0865 130.385 38.4536 130.322 37.7153C130.279 36.9769 130.248 36.1646 130.227 35.2786C130.206 34.3925 130.216 33.5275 130.258 32.6837C130.322 31.8398 130.406 31.0592 130.512 30.3419C130.638 29.6246 130.807 29.0445 131.018 28.6014C131.334 27.9685 131.851 27.4517 132.568 27.0508C133.286 26.65 134.045 26.3757 134.847 26.228C135.649 26.0804 136.408 26.0593 137.125 26.1648C137.864 26.2702 138.412 26.5023 138.771 26.861C138.982 27.0719 139.172 27.4939 139.341 28.1268C139.509 28.7386 139.615 29.4875 139.657 30.3736C139.657 30.458 139.668 30.7006 139.689 31.1014C139.71 31.5022 139.72 31.9347 139.72 32.3989C139.741 32.8419 139.752 33.2638 139.752 33.6647C139.752 34.0655 139.741 34.2976 139.72 34.3609ZM148.644 25.7534C148.813 25.8589 148.971 26.0698 149.119 26.3863C149.288 26.6816 149.435 27.0297 149.562 27.4306C149.71 27.8103 149.826 28.2217 149.91 28.6647C150.016 29.1078 150.1 29.5191 150.163 29.8989C150.248 30.2786 150.3 30.6056 150.321 30.8799C150.343 31.1331 150.343 31.2913 150.321 31.3546C150.279 31.439 150.153 31.5233 149.942 31.6077C149.752 31.6921 149.467 31.7871 149.087 31.8925C148.708 31.998 148.18 32.1141 147.505 32.2406C147.463 31.0803 147.378 30.2048 147.252 29.6141C147.125 29.0023 146.988 28.5698 146.84 28.3166C146.672 28.0213 146.492 27.8736 146.302 27.8736C146.113 27.958 145.944 28.0635 145.796 28.1901C145.648 28.2955 145.522 28.4116 145.416 28.5381C145.29 28.6858 145.174 28.8441 145.068 29.0128C145.026 29.0761 144.984 29.2238 144.942 29.4559C144.9 29.6879 144.857 30.036 144.815 30.5001C144.815 30.6478 144.805 30.9537 144.784 31.4179C144.784 31.882 144.773 32.42 144.752 33.0318C144.752 33.6436 144.741 34.287 144.72 34.9621C144.72 35.6372 144.71 36.2701 144.689 36.8608C144.689 37.4304 144.678 37.9157 144.657 38.3165C144.657 38.7174 144.646 38.9494 144.625 39.0127C144.583 39.1182 144.478 39.2659 144.309 39.4557C144.14 39.6456 143.95 39.8249 143.739 39.9937C143.528 40.1414 143.328 40.268 143.138 40.3734C142.948 40.4578 142.822 40.4473 142.758 40.3418C142.695 40.2785 142.632 40.0043 142.568 39.519C142.505 39.0338 142.431 38.4431 142.347 37.7469C142.284 37.0296 142.21 36.249 142.125 35.4052C142.041 34.5613 141.967 33.7491 141.904 32.9685C141.841 32.1879 141.788 31.4917 141.746 30.8799C141.703 30.247 141.672 29.7934 141.651 29.5191C141.63 29.1183 141.608 28.6753 141.587 28.1901C141.566 27.7048 141.545 27.2512 141.524 26.8293C141.524 26.3863 141.524 26.0065 141.524 25.6901C141.545 25.3525 141.587 25.1521 141.651 25.0888C141.693 25.0255 141.83 25.015 142.062 25.0572C142.315 25.0783 142.579 25.1416 142.853 25.247C143.149 25.3314 143.423 25.4475 143.676 25.5951C143.929 25.7428 144.098 25.88 144.182 26.0065C144.246 26.112 144.309 26.2702 144.372 26.4812C144.773 26.2702 145.153 26.0804 145.511 25.9116C145.891 25.7217 146.25 25.5846 146.587 25.5002C146.946 25.4158 147.294 25.3947 147.632 25.4369C147.969 25.458 148.307 25.5635 148.644 25.7534ZM158.233 25.6901C158.38 25.8167 158.518 26.0593 158.644 26.4179C158.792 26.7766 158.918 27.2091 159.024 27.7154C159.129 28.2217 159.224 28.7702 159.309 29.3609C159.393 29.9516 159.467 30.5318 159.53 31.1014C159.593 31.671 159.636 32.209 159.657 32.7153C159.699 33.2005 159.731 33.6014 159.752 33.9178C159.773 34.2976 159.783 34.6984 159.783 35.1203C159.804 35.5212 159.804 35.9115 159.783 36.2912C159.783 36.6499 159.762 36.9769 159.72 37.2722C159.699 37.5676 159.657 37.7891 159.593 37.9368C159.467 38.2532 159.245 38.4747 158.929 38.6013C158.634 38.7068 158.296 38.7806 157.916 38.8228C157.726 38.8439 157.399 38.8545 156.935 38.8545C156.492 38.8334 156.007 38.8123 155.48 38.7912C154.973 38.749 154.488 38.7068 154.024 38.6646C153.56 38.6224 153.212 38.5802 152.98 38.538C152.515 38.4325 152.178 38.2954 151.967 38.1266C151.777 37.9579 151.587 37.7153 151.397 37.3988C151.334 37.2722 151.281 36.9558 151.239 36.4494C151.197 35.922 151.165 35.2997 151.144 34.5824C151.144 33.844 151.155 33.0529 151.176 32.209C151.197 31.3651 151.229 30.5634 151.271 29.804C151.334 29.0445 151.397 28.3799 151.461 27.8103C151.545 27.2407 151.651 26.861 151.777 26.6711C151.988 26.3757 152.347 26.1015 152.853 25.8483C153.38 25.5951 153.855 25.3947 154.277 25.247C154.488 25.1838 154.762 25.1416 155.1 25.1205C155.458 25.0783 155.828 25.0783 156.207 25.1205C156.608 25.1416 156.988 25.2049 157.347 25.3103C157.705 25.3947 158.001 25.5213 158.233 25.6901ZM156.461 35.5001C156.503 35.4157 156.545 35.1625 156.587 34.7406C156.65 34.2976 156.693 33.7702 156.714 33.1583C156.756 32.5465 156.777 31.8925 156.777 31.1963C156.798 30.5001 156.809 29.8567 156.809 29.266C156.809 28.6753 156.788 28.1795 156.745 27.7787C156.703 27.3567 156.65 27.1141 156.587 27.0508C156.482 26.9664 156.323 26.9348 156.112 26.9559C155.923 26.9559 155.722 26.9875 155.511 27.0508C155.3 27.093 155.11 27.1563 154.942 27.2407C154.773 27.304 154.657 27.3673 154.594 27.4306C154.319 27.6626 154.172 28.0424 154.15 28.5698C154.15 28.7175 154.129 29.1394 154.087 29.8356C154.066 30.5107 154.056 31.2491 154.056 32.0508C154.056 32.8313 154.066 33.5592 154.087 34.2343C154.129 34.9094 154.203 35.3208 154.309 35.4684C154.414 35.6161 154.562 35.7322 154.752 35.8165C154.963 35.8798 155.174 35.9115 155.385 35.9115C155.617 35.9115 155.828 35.8798 156.018 35.8165C156.229 35.7322 156.376 35.6267 156.461 35.5001Z" fill="#2E65F3"/>
<path d="M20.2245 30.9602L19.3866 30.1011C19.2663 29.9779 19.1032 29.9086 18.9331 29.9086H17.9161L15.5389 27.4715C15.4186 27.3482 15.2555 27.2789 15.0854 27.2789H12.1446L11.5033 29.2512V30.566C11.5033 30.9798 11.6934 31.3695 12.0163 31.6179L13.5553 32.8012C13.8783 33.0495 14.0683 33.4392 14.0683 33.853V37.3993C14.0683 37.6589 14.1434 37.9126 14.2838 38.1286L15.351 39.7697H15.9923V37.7974L17.9161 35.8252L18.4113 34.3025C18.4986 34.034 18.7437 33.853 19.0196 33.853H19.3393C19.6336 33.853 19.8901 33.6476 19.9615 33.355L20.3933 31.5844C20.4478 31.3605 20.3837 31.1235 20.2245 30.9602Z" fill="white"/>
<path d="M17.9163 42.3989C26.0623 42.3989 32.6659 35.6293 32.6659 27.2786C32.6659 18.9279 26.0623 12.1583 17.9163 12.1583C9.77036 12.1583 3.16675 18.9279 3.16675 27.2786C3.16675 35.6293 9.77036 42.3989 17.9163 42.3989Z" fill="#2E65F3"/>
<path d="M25.0368 37.7061C16.8908 37.7061 10.2872 30.9364 10.2872 22.5858C10.2872 18.8273 11.6279 15.3919 13.8418 12.7471C7.67847 14.5602 3.16675 20.3772 3.16675 27.2784C3.16675 35.6291 9.77039 42.3987 17.9163 42.3987C22.3959 42.3987 26.4061 40.3488 29.1113 37.1171C27.8166 37.4979 26.4508 37.7061 25.0368 37.7061Z" fill="#2E65F3"/>
<path d="M11.6247 28.8769L11.5031 29.2509V30.5657C11.5031 30.9796 11.6931 31.3692 12.0161 31.6176L13.5551 32.8009C13.8781 33.0492 14.0681 33.4389 14.0681 33.8528V37.399C14.0681 37.6586 14.1431 37.9124 14.2836 38.1283L15.3507 39.7694H15.992V37.7972L17.9137 35.8272C15.1576 34.2657 12.9433 31.8262 11.6247 28.8769Z" fill="#C7CFE2"/>
<path d="M13.8354 15.5651L12.786 16.1031V15.4457H11.3934C11.0532 15.4457 10.727 15.5842 10.4865 15.8308L9.57953 16.7605L8.49368 15.6474C6.81483 17.0783 5.45309 18.8849 4.52576 20.9402L5.43951 23.7504C5.61413 24.2873 6.10411 24.6494 6.65623 24.6494H7.01436L7.65565 25.9642L9.57953 26.3586V25.3067C9.57953 24.5805 10.1538 23.9919 10.8621 23.9919H11.8791C12.0492 23.9919 12.2122 23.9226 12.3325 23.7993L16.6337 19.39H17.9163V18.0752L16.8045 17.3153C16.4926 17.1022 16.5757 16.6109 16.9392 16.5176L18.5575 16.103V15.4456H14.3292C14.1578 15.4456 13.9887 15.4866 13.8354 15.5651Z" fill="#E4EAF6"/>
<path d="M9.57957 26.3584V25.3066C9.57957 24.7629 9.90165 24.2965 10.3606 24.0963C10.3125 23.5996 10.2872 23.096 10.2872 22.5863C10.2872 19.9998 10.9341 17.5737 12.0517 15.4456H11.3934C11.0532 15.4456 10.727 15.5842 10.4865 15.8307L9.5795 16.7604L8.49932 15.6531C8.25562 15.8606 8.01571 16.0725 7.78559 16.2955C7.75193 16.3281 7.71987 16.3623 7.68649 16.3953C7.46407 16.615 7.24921 16.8428 7.0403 17.0763C6.98515 17.1381 6.92944 17.1992 6.87534 17.2619C6.64627 17.527 6.4242 17.7986 6.21347 18.0798C6.17855 18.1263 6.14677 18.1753 6.11248 18.2223C5.94248 18.4545 5.77997 18.6926 5.62292 18.935C5.55433 19.0412 5.48679 19.1485 5.42066 19.2566C5.29013 19.4696 5.1659 19.6869 5.04573 19.9068C4.98737 20.0137 4.92697 20.119 4.87098 20.2276C4.74934 20.4634 4.63785 20.7053 4.52832 20.9483L5.43941 23.7503C5.61403 24.2872 6.10401 24.6493 6.65614 24.6493H7.01426L7.65555 25.9641L9.57957 26.3584Z" fill="#C7CFE2"/>
<path d="M17.9161 11.5425C9.45175 11.5425 2.56537 18.6019 2.56537 27.2791C2.56537 35.9562 9.45175 43.0157 17.9161 43.0157C26.3805 43.0157 33.2669 35.9562 33.2669 27.2791C33.2669 18.6019 26.3805 11.5425 17.9161 11.5425ZM28.818 22.2055C29.114 22.2055 29.3595 21.986 29.4094 21.6972L29.6286 21.8096C29.8446 21.9203 30.0863 21.9788 30.3277 21.9788H31.0862C31.1797 22.2221 31.2664 22.4689 31.3472 22.7184H30.4033C30.1124 22.7184 29.821 22.7889 29.5609 22.9221L29.2148 23.0996C28.9966 23.2113 28.7351 23.1946 28.5321 23.056L27.2275 22.1644C27.1288 22.097 27.0126 22.0609 26.894 22.0609H26.7348L27.1801 21.3762C27.2025 21.3418 27.2398 21.3213 27.2801 21.3213H28.2166V21.5892C28.2168 21.9296 28.4859 22.2055 28.818 22.2055ZM28.1294 17.2523L27.7515 17.6396C27.5167 17.8803 27.5167 18.2705 27.7515 18.5112C27.8689 18.6315 28.0228 18.6917 28.1766 18.6917C28.3304 18.6917 28.4843 18.6316 28.6017 18.5112L28.9249 18.1799C29.5486 18.9713 30.0931 19.8308 30.5455 20.7462H30.3275C30.2718 20.7462 30.216 20.7326 30.1661 20.7071L29.2389 20.2318C29.0563 20.1382 28.8518 20.0887 28.6475 20.0887H27.2801C26.8368 20.0887 26.4254 20.3145 26.1795 20.6925L25.2898 22.061H24.7299C24.4867 22.061 24.289 21.8582 24.289 21.609V20.5215C24.289 20.5039 24.3 20.4882 24.3165 20.4826L25.4895 20.0817C25.7819 19.9818 26.0517 19.8109 26.2697 19.5874C26.6467 19.201 26.8542 18.6873 26.8542 18.1408V17.0331C26.8542 17.0223 26.8585 17.0117 26.8659 17.004L27.3193 16.5392C27.3344 16.5237 27.3486 16.5075 27.3618 16.4907C27.6267 16.7346 27.8829 16.9885 28.1294 17.2523ZM8.47053 16.4905C8.48376 16.5072 8.49776 16.5234 8.51302 16.539L9.15431 17.1964C9.26699 17.312 9.41998 17.3769 9.57941 17.3769C9.73884 17.3769 9.89176 17.3119 10.0045 17.1964L10.9113 16.2666C11.04 16.1347 11.2112 16.0621 11.3932 16.0621H12.1846V16.1032C12.1846 16.3168 12.2925 16.5151 12.4697 16.6274C12.6469 16.7398 12.8683 16.75 13.0547 16.6544L14.104 16.1164C14.1735 16.0809 14.2513 16.0621 14.329 16.0621H16.4738C16.2392 16.2188 16.0762 16.4689 16.0259 16.7665C15.9552 17.1855 16.1256 17.5924 16.4708 17.8283L17.297 18.393C17.3082 18.4007 17.3148 18.4134 17.3148 18.4272V18.7328C17.3148 18.7555 17.2968 18.7739 17.2747 18.7739H16.9986C16.6025 18.7739 16.2301 18.932 15.9499 19.2192L11.907 23.3637C11.8996 23.3713 11.8893 23.3756 11.8787 23.3756H10.8619C9.82318 23.3756 8.97815 24.2419 8.97815 25.3068V25.6069L8.31166 25.4702C8.15279 25.4376 8.02017 25.3337 7.94773 25.1853L7.55188 24.3738C7.45005 24.165 7.24191 24.0331 7.01417 24.0331H6.65605C6.36231 24.0331 6.10252 23.8411 6.00972 23.5554L5.1726 20.981C5.98011 19.2709 7.10613 17.7473 8.47053 16.4905ZM17.9161 41.783C10.1147 41.783 3.76782 35.2765 3.76782 27.279C3.76782 25.6949 4.01767 24.1697 4.47763 22.7416L4.869 23.9452C5.12438 24.7308 5.83608 25.2599 6.64261 25.2657L6.87224 25.7365C7.11173 26.2277 7.55041 26.5711 8.07574 26.6789L10.3684 27.1489C10.4974 27.1753 10.6146 27.2396 10.7075 27.335C10.894 27.5262 11.1132 27.672 11.3521 27.7669L10.9329 29.0563C10.9125 29.1191 10.902 29.1849 10.902 29.2512V30.566C10.902 31.1706 11.1837 31.7482 11.6555 32.111L13.1946 33.2943C13.3652 33.4254 13.4671 33.6343 13.4671 33.853V37.3993C13.4671 37.7819 13.5765 38.1523 13.7835 38.4705L14.7079 39.892C14.9091 40.2013 15.2456 40.386 15.6083 40.386H15.8319C16.2517 40.386 16.5934 40.0357 16.5934 39.6053V38.4783C16.5934 38.2039 16.6976 37.9459 16.8868 37.7519L18.0735 36.5354C18.3143 36.2886 18.4984 35.9832 18.6061 35.652L18.9816 34.4974C18.9871 34.4805 19.0024 34.4693 19.0196 34.4693H19.3393C19.9106 34.4693 20.4063 34.0725 20.5447 33.5044L20.9765 31.7338C21.0817 31.3023 20.9565 30.8388 20.6496 30.5244L19.8116 29.6653C19.577 29.4248 19.2649 29.2922 18.9331 29.2922H18.1651L15.9638 27.0356C15.7292 26.7951 15.4172 26.6626 15.0853 26.6626H12.1585C12.1491 26.6623 12.1398 26.6623 12.1304 26.6626H12.0271C11.8499 26.6626 11.6832 26.5918 11.5579 26.4632C11.2965 26.1953 10.9668 26.0144 10.6043 25.9401L10.1807 25.8533V25.3068C10.1807 24.9217 10.4863 24.6083 10.8621 24.6083H11.5435V24.6494C11.5435 24.9898 11.8126 25.2657 12.1446 25.2657C12.4767 25.2657 12.7458 24.9898 12.7458 24.6494V24.2461C12.7496 24.2423 12.7537 24.239 12.7575 24.2353L16.8004 20.0908C16.8534 20.0365 16.9239 20.0066 16.9988 20.0066H17.2749C17.96 20.0066 18.5174 19.4352 18.5174 18.7329V18.4272C18.5174 18.0004 18.3105 17.6042 17.9641 17.3675L17.4567 17.0206L18.4306 16.7709C18.8593 16.6611 19.1587 16.2681 19.1587 15.8147C19.1587 15.2715 18.7275 14.8295 18.1976 14.8295H14.3292C14.0657 14.8295 13.8019 14.8932 13.5664 15.014L13.1691 15.2176C12.9854 14.9812 12.7022 14.8294 12.3851 14.8294H11.3933C10.8901 14.8294 10.417 15.0302 10.0612 15.395L9.57941 15.8889L9.39968 15.7048C11.7707 13.8668 14.7212 12.7751 17.9161 12.7751C21.1111 12.7751 24.0616 13.8668 26.4325 15.7048L26.0155 16.1322C25.7807 16.3729 25.6515 16.6926 25.6515 17.0329V18.1405C25.6515 18.3578 25.569 18.5621 25.4192 18.7157C25.3325 18.8045 25.2254 18.8724 25.1091 18.9122L23.936 19.313C23.4279 19.4866 23.0864 19.9722 23.0864 20.5214V21.6089C23.0864 21.9194 23.1702 22.2097 23.3138 22.4597C23.0699 22.6281 22.856 22.8447 22.6877 23.1037L22.1202 23.9762C21.9132 24.2944 21.8038 24.6649 21.8038 25.0474V26.2234C21.8038 26.6059 21.9132 26.9764 22.1202 27.2946L22.8066 28.3501C23.1568 28.8886 23.7428 29.21 24.374 29.21H25.9696C26.2634 29.21 26.5231 29.4019 26.6159 29.6877L26.7592 30.1283C26.8752 30.485 26.9341 30.8565 26.9341 31.2327V31.698C26.9341 32.3126 27.0175 32.9241 27.1824 33.5153L28.2133 37.2145C25.6314 40.0251 21.9705 41.783 17.9161 41.783ZM13.9161 32.3082L12.377 31.1249C12.2064 30.9937 12.1045 30.7847 12.1045 30.5661V29.3513L12.5779 27.8954H15.0854C15.0959 27.8954 15.1063 27.8998 15.1137 27.9074L17.491 30.3445C17.6037 30.4601 17.7567 30.525 17.9161 30.525H18.9331C18.9436 30.525 18.954 30.5294 18.9614 30.537L19.7994 31.3961C19.8094 31.4063 19.8134 31.4212 19.81 31.4351L19.3782 33.2057C19.3737 33.224 19.3577 33.2367 19.3393 33.2367H19.0196C18.484 33.2367 18.0103 33.5867 17.8408 34.1077L17.4654 35.2624C17.4164 35.4129 17.3327 35.5518 17.2233 35.6639L16.0366 36.8804C15.6202 37.3072 15.3909 37.8748 15.3909 38.4784V38.7204L14.7839 37.7869C14.709 37.6719 14.6695 37.5378 14.6695 37.3995V33.8532C14.6696 33.2484 14.3879 32.6708 13.9161 32.3082ZM29.1494 36.0859L28.3386 33.1768C28.2046 32.6958 28.1366 32.1982 28.1366 31.6981V31.2328C28.1366 30.724 28.057 30.2212 27.9001 29.7385L27.7568 29.2979C27.5 28.5082 26.7818 27.9775 25.9697 27.9775H24.3741C24.1458 27.9775 23.9339 27.8612 23.8072 27.6665L23.1208 26.611C23.0459 26.4958 23.0063 26.3619 23.0063 26.2235V25.0475C23.0063 24.9091 23.0459 24.7752 23.1208 24.6601L23.6883 23.7876C23.8894 23.4783 24.226 23.2936 24.5886 23.2936H26.7121L27.8652 24.0816C28.4262 24.465 29.1495 24.5112 29.7526 24.2021L30.0986 24.0247C30.1927 23.9764 30.2981 23.951 30.4033 23.951H31.6881C31.9339 25.0201 32.0645 26.1342 32.0645 27.2791C32.0645 30.5887 30.9766 33.6425 29.1494 36.0859Z" fill="black"/>
<path d="M5.31112 15.2334C5.42765 15.3492 5.57966 15.407 5.73174 15.407C5.88382 15.407 6.0357 15.3491 6.15236 15.2334C6.15691 15.2289 6.16139 15.2243 6.1658 15.2196C6.39172 14.9806 6.39172 14.5963 6.1658 14.3574C6.16363 14.355 6.16139 14.3527 6.15915 14.3504C5.92435 14.1097 5.53921 14.1097 5.3044 14.3504C5.06959 14.5911 5.06959 14.9859 5.3044 15.2266C5.3065 15.2289 5.30888 15.2311 5.31112 15.2334Z" fill="white"/>
<path d="M6.33291 12.1588C6.33291 11.8184 6.06374 11.5425 5.73173 11.5425C3.98583 11.5425 2.56537 12.9986 2.56537 14.7884C2.56537 15.1288 2.83454 15.4047 3.16656 15.4047C3.49858 15.4047 3.76775 15.1288 3.76775 14.7884C3.76775 13.6783 4.64881 12.7752 5.73166 12.7752C6.06374 12.7751 6.33291 12.4991 6.33291 12.1588Z" fill="white"/>
<path d="M6.33271 9.52896C6.33271 9.18859 6.06354 8.91266 5.73152 8.91266C2.57119 8.91266 0 11.5485 0 14.7882C0 15.1285 0.26917 15.4045 0.601189 15.4045C0.933208 15.4045 1.20238 15.1285 1.20238 14.7882C1.20238 12.228 3.2341 10.1453 5.73145 10.1453C6.06354 10.1453 6.33271 9.86932 6.33271 9.52896Z" fill="white"/>
<path d="M30.8411 37.8176C30.9585 37.9379 31.1135 37.9981 31.2685 37.9981C31.4235 37.9981 31.5785 37.938 31.6959 37.8176C31.9307 37.5769 31.9307 37.1821 31.6959 36.9414C31.6937 36.9391 31.6915 36.9368 31.6891 36.9346C31.456 36.7031 31.0811 36.7031 30.848 36.9346C30.8435 36.9391 30.839 36.9437 30.8346 36.9484C30.6087 37.1873 30.6087 37.5717 30.8346 37.8106C30.8366 37.813 30.8389 37.8153 30.8411 37.8176Z" fill="white"/>
<path d="M33.8336 36.7631C33.5016 36.7631 33.2325 37.039 33.2325 37.3794C33.2325 38.4895 32.3514 39.3926 31.2685 39.3926C30.9365 39.3926 30.6674 39.6686 30.6674 40.0089C30.6674 40.3493 30.9365 40.6252 31.2685 40.6252C33.0144 40.6252 34.4349 39.1691 34.4349 37.3793C34.4348 37.0389 34.1657 36.7631 33.8336 36.7631Z" fill="white"/>
<path d="M36.3988 36.7631C36.0668 36.7631 35.7976 37.039 35.7976 37.3794C35.7976 39.9395 33.7659 42.0223 31.2685 42.0223C30.9365 42.0223 30.6674 42.2982 30.6674 42.6386C30.6674 42.9789 30.9365 43.2549 31.2685 43.2549C34.4288 43.2549 37 40.6191 37 37.3794C37 37.0389 36.7308 36.7631 36.3988 36.7631Z" fill="white"/>
<path d="M13.4275 18.6913C13.5179 18.6913 13.6095 18.6704 13.6959 18.6262L14.9785 17.9688C15.2755 17.8166 15.3959 17.4464 15.2474 17.1419C15.0989 16.8374 14.7378 16.714 14.4408 16.8663L13.1582 17.5237C12.8612 17.6759 12.7408 18.0461 12.8893 18.3506C12.9946 18.5665 13.2069 18.6913 13.4275 18.6913Z" fill="black"/>
<path d="M24.3289 18.0341C24.6609 18.0341 24.93 17.7581 24.93 17.4178V16.7603C24.93 16.42 24.6609 16.144 24.3289 16.144C23.9968 16.144 23.7277 16.42 23.7277 16.7603V17.4178C23.7276 17.7581 23.9967 18.0341 24.3289 18.0341Z" fill="black"/>
<path d="M32.1554 23.3344H30.4034C30.2043 23.3344 30.0079 23.3819 29.8298 23.4733L29.4838 23.6507C29.0722 23.8616 28.5817 23.8304 28.1988 23.5687L26.8941 22.6771H25.6116L26.8941 20.7049H28.818L30.1006 21.3623H31.4929C30.5665 19.1313 29.1321 17.1757 27.3388 15.6473L26.4408 16.568C26.3205 16.6912 26.2529 16.8585 26.2529 17.0328V18.1405C26.2529 18.5197 26.106 18.8834 25.8444 19.1514C25.6913 19.3084 25.5047 19.4266 25.2992 19.4968L24.1262 19.8976C23.8643 19.9871 23.6877 20.2383 23.6877 20.5213V22.677L22.6205 24.318C22.4801 24.534 22.405 24.7877 22.405 25.0473V26.2233C22.405 26.4829 22.4801 26.7366 22.6205 26.9526L23.307 28.0081C23.5448 28.3738 23.9453 28.5936 24.3741 28.5936H25.9697C26.5218 28.5936 27.0119 28.9558 27.1864 29.4926L27.4695 30.3633C27.5131 30.4973 27.5353 30.6378 27.5353 30.7791V32.538L29.0484 37.1915C31.2996 34.5369 32.6656 31.0725 32.6656 27.2788C32.6656 25.9138 32.4862 24.5923 32.1554 23.3344Z" fill="#E4EAF6"/>
<path d="M14.5 29.5L17 32.5C14.8333 31.8333 11.3 30.5 14.5 30.5C17.7 30.5 15.8333 30.8333 14.5 31L17.5 31.5H18" stroke="black"/>
<path d="M15.5 33C15.5 34.2 15.8334 33.8333 16 33.5C15.5 32.6667 14.1496 31.9936 15.5 32.5C19.1421 33.8658 15.7373 34.4025 15.8537 34.4877M16 34.5C15.9106 34.5 15.8651 34.496 15.8537 34.4877M14 29.5L13 30C13 30.5 13.1 31 13.5 29C14 26.5 18 32.5 17 34.5C16.2 36.1 17 33.8333 17.5 32.5C17.3485 32.0455 17.3072 31.3431 18.2022 31.8199M14 29.5V29M14 29.5L16.5 30H17L17.5 31H18H19L19.5 31.5L18.2022 31.8199M18.2022 31.8199C18.2918 31.8676 18.3908 31.9272 18.5 32C20 33 19 31.5 18 32.5V33M18.5 33H19H19.5L18 33.5L17.5 34V34.5V35L15.8537 34.4877M15 33.5L14.5 33L14 32.5L13.5 32L13 31.5L12.5 30H12L12.5 28H14H15L16.5 29.5L13 28.5V29.5L16.5 33.5L14.5 32L15.75 31.25L17 30.5" stroke="#C7CFE2"/>
<path d="M16 32C16.5 32.3333 17.3 32.8 16.5 32C15.7 31.2 15.1667 30.6667 15 30.5L14.5 30H14V31.5L13.5 31V30.5L17 31" stroke="#C7CFE2"/>
</g>
<defs>
<clipPath id="clip0_21_29">
<rect width="160" height="60" fill="white" transform="translate(0 0.691772)"/>
</clipPath>
</defs>
</svg>
